# xmcd
#
# Track frame offsets:
#	150
#	15263
#	31243
#	44229
#	62770
#	79996
#	94246
#	113713
#	129148
#	145540
#	160966
#	175738
#	191557
#	206992
#
# Disc length: 2957 seconds
#
# Revision: 0
# Processed by: cddbd v1.5.2PL0 Copyright (c) Steve Scherf et al.
# Submitted via: EasyCDDAExtractor 16.0.1.1
#
DISCID=ba0b8b0e
DTITLE=Lasse Stefanz - Rocky Mountains
DYEAR=2012
DGENRE=Dance
TTITLE0=Sara Solsken
TTITLE1=I Mina Skor
TTITLE2=En Sång Från Amerika
TTITLE3=Heart Of Stone
TTITLE4=Billy Paul
TTITLE5=Om Du Vill Tala Om Kärlek
TTITLE6=Min Rödaste Ros
TTITLE7=Jag Far Från Waco
TTITLE8=Pretend
TTITLE9=I Glädje Och Sorg
TTITLE10=Ett Litet Hus I Skåne
TTITLE11=Sommar, Höst, Vinter Och Vår
TTITLE12=När Natten Kommer
TTITLE13=Oh Sha-Na-Na-Na
EXTD=
EXTT0=
EXTT1=
EXTT2=
EXTT3=
EXTT4=
EXTT5=
EXTT6=
EXTT7=
EXTT8=
EXTT9=
EXTT10=
EXTT11=
EXTT12=
EXTT13=
PLAYORDER=
